<svg width="2048" height="2048" version="1.1" xmlns="http://www.w3.org/2000/svg" desc="Created with imagetracer.js version 1.2.6" ><path fill="rgb(1,3,5)" stroke="rgb(1,3,5)" stroke-width="1" opacity="0.011764705882352941" d="M 0 0 L 180 0.5 L 165.5 2 L 140.5 8 L 108.5 21 Q 73.7 39.2 49 67.5 Q 28.3 90.8 15 121.5 L 4 155.5 L 0.5 180 L 0 0 Z " /><path fill="rgb(1,3,5)" stroke="rgb(1,3,5)" stroke-width="1" opacity="0.011764705882352941" d="M 1868.5 0 L 2048 0 L 2048 179.5 L 2047 179.5 L 2047 172.5 L 2042 147.5 Q 2036.3 126.2 2027 108.5 Q 2008.8 73.7 1980.5 49 Q 1957.2 28.3 1926.5 15 L 1900.5 6 L 1875.5 1 L 1868.5 1 L 1868.5 0 Z " /><path fill="rgb(1,3,5)" stroke="rgb(1,3,5)" stroke-width="1" opacity="0.011764705882352941" d="M 0.5 1868 L 3 1887.5 L 8 1907.5 L 21 1939.5 Q 39.2 1974.3 67.5 1999 Q 90.8 2019.7 121.5 2033 L 155.5 2044 L 180 2047.5 L 0 2048 L 0.5 1868 Z " /><path fill="rgb(1,3,5)" stroke="rgb(1,3,5)" stroke-width="1" opacity="0.011764705882352941" d="M 2047.5 1868 L 2048 2048 L 1868 2047.5 L 1882.5 2046 L 1907.5 2040 Q 1929.9 2032.9 1948.5 2022 Q 1977.5 2005 1999 1980.5 Q 2019.7 1957.2 2033 1926.5 L 2043 1896.5 L 2047.5 1868 Z " /><path fill="rgb(45,121,199)" stroke="rgb(45,121,199)" stroke-width="1" opacity="0.996078431372549" d="M 180.5 0 L 198 0.5 L 180.5 1 L 179.5 2 L 160.5 4 L 144.5 8 L 119.5 17 Q 82.2 33.7 56 61.5 Q 32.2 86.2 17 119.5 L 7 147.5 L 3 165.5 L 1.5 179 L 1 172.5 L 8 140.5 L 21 108.5 Q 39.2 73.7 67.5 49 Q 90.8 28.3 121.5 15 L 147.5 6 L 180.5 0 Z " /><path fill="rgb(45,121,199)" stroke="rgb(45,121,199)" stroke-width="1" opacity="0.996078431372549" d="M 1850.5 0 L 1868 0.5 L 1850.5 1 L 1850.5 0 Z " /><path fill="rgb(45,121,199)" stroke="rgb(45,121,199)" stroke-width="1" opacity="0.996078431372549" d="M 1869.5 1 L 1882 2.5 L 1876.5 3 Q 1875 0.5 1869.5 2 L 1869.5 1 Z " /><path fill="rgb(45,121,199)" stroke="rgb(45,121,199)" stroke-width="1" opacity="0.996078431372549" d="M 1883.5 3 L 1892.5 4 L 1916.5 11 L 1948.5 26 Q 1977.7 42.8 1999 67.5 Q 2016.6 87.4 2029 112.5 L 2040 140.5 L 2044 155.5 L 2045 164.5 L 2044 164.5 L 2043 155.5 L 2039 140.5 L 2031 119.5 L 2023 103.5 Q 2007.7 75.8 1985.5 55 Q 1967.9 38.6 1946.5 26 L 1913.5 11 L 1892.5 5 L 1883.5 4 L 1883.5 3 Z " /><path fill="rgb(45,121,199)" stroke="rgb(45,121,199)" stroke-width="1" opacity="0.996078431372549" d="M 2045.5 166 L 2048 180.5 L 2048 197.5 L 2047 197.5 L 2047 180.5 L 2045 171.5 L 2045.5 166 Z " /><path fill="rgb(45,121,199)" stroke="rgb(45,121,199)" stroke-width="1" opacity="0.996078431372549" d="M 0.5 180 L 1 197.5 L 0 197.5 L 0.5 180 Z " /><path fill="rgb(45,121,199)" stroke="rgb(45,121,199)" stroke-width="1" opacity="0.996078431372549" d="M 0.5 1850 L 1 1867.5 L 0 1867.5 L 0.5 1850 Z " /><path fill="rgb(45,121,199)" stroke="rgb(45,121,199)" stroke-width="1" opacity="0.996078431372549" d="M 2047.5 1850 L 2048 1867.5 L 2042 1900.5 Q 2036.6 1920.6 2028 1937.5 Q 2009.6 1973.6 1980.5 1999 Q 1946.3 2030.3 1893.5 2043 L 1893.5 2042 L 1910.5 2038 L 1944.5 2023 Q 1971.4 2007.9 1992 1986.5 Q 2015.8 1961.8 2031 1928.5 L 2041 1900.5 L 2044 1887.5 L 2046 1868.5 L 2047 1867.5 L 2047.5 1850 Z " /><path fill="rgb(45,121,199)" stroke="rgb(45,121,199)" stroke-width="1" opacity="0.996078431372549" d="M 1.5 1869 L 3 1881.5 L 2 1881.5 L 1.5 1869 Z " /><path fill="rgb(45,121,199)" stroke="rgb(45,121,199)" stroke-width="1" opacity="0.996078431372549" d="M 3.5 1883 L 9 1907.5 L 17 1928.5 L 25 1944.5 Q 39.8 1970.7 60.5 1991 Q 85.5 2015.5 119.5 2031 L 151.5 2042 L 179 2046.5 L 172.5 2047 L 140.5 2040 L 110.5 2028 Q 74.4 2009.6 49 1980.5 Q 32.8 1962.2 21 1939.5 L 8 1907.5 L 3 1887.5 L 3.5 1883 Z " /><path fill="rgb(45,121,199)" stroke="rgb(45,121,199)" stroke-width="1" opacity="0.996078431372549" d="M 1888.5 2043 L 1892 2043.5 Q 1882.5 2047 1869.5 2047 L 1869.5 2046 L 1882.5 2045 L 1888.5 2043 Z " /><path fill="rgb(45,121,199)" stroke="rgb(45,121,199)" stroke-width="1" opacity="0.996078431372549" d="M 180.5 2047 L 199 2047.5 L 180.5 2048 L 180.5 2047 Z " /><path fill="rgb(45,121,199)" stroke="rgb(45,121,199)" stroke-width="1" opacity="0.996078431372549" d="M 1849.5 2047 L 1868 2047.5 L 1849.5 2048 L 1849.5 2047 Z " /><path fill="rgb(45,121,199)" stroke="rgb(45,121,199)" stroke-width="1" opacity="1" d="M 198.5 0 L 1849.5 0 L 1850.5 1 L 1868.5 1 L 1869.5 2 L 1892.5 5 Q 1912.1 9.4 1928.5 17 Q 1966.3 34.3 1993 62.5 Q 2016.3 86.7 2031 119.5 L 2039 140.5 L 2043 155.5 L 2046 172.5 L 2046 179.5 L 2047 180.5 L 2047 197.5 L 2048 198.5 L 2048 1849.5 L 2047 1850.5 L 2047 1867.5 L 2046 1868.5 L 2044 1887.5 L 2041 1900.5 L 2031 1928.5 Q 2014.1 1965.6 1986.5 1992 Q 1961.8 2015.8 1928.5 2031 L 1910.5 2038 L 1892.5 2043 L 1869.5 2046 L 1868.5 2047 L 1849.5 2047 L 1848.5 2048 L 199.5 2048 L 198.5 2047 L 179.5 2047 L 178.5 2046 L 160.5 2044 L 144.5 2040 L 119.5 2031 Q 82.4 2014.1 56 1986.5 Q 32.2 1961.8 17 1928.5 L 9 1907.5 L 4 1887.5 L 2 1869.5 L 1 1868.5 L 1 1850.5 L 0 1849.5 L 0 198.5 L 1 197.5 L 1 179.5 L 2 178.5 L 5 155.5 L 9 140.5 L 17 119.5 Q 33.9 82.4 61.5 56 Q 86 32 119.5 17 L 144.5 8 L 160.5 4 L 179.5 2 L 180.5 1 L 197.5 1 L 198.5 0 Z M 1593 952 L 1592 953 L 1574 953 L 1573 954 L 1551 955 L 1550 956 L 1543 956 L 1521 960 L 1515 960 L 1477 968 L 1441 979 Q 1383 1000 1342 1036 Q 1306 1068 1284 1114 L 1274 1141 L 1269 1161 L 1267 1179 L 1266 1180 L 1266 1187 L 1265 1188 L 1265 1200 L 1264 1201 L 1264 1235 L 1265 1236 L 1266 1256 L 1270 1279 L 1279 1309 Q 1296 1352 1325 1383 Q 1359 1418 1403 1444 L 1453 1470 L 1530 1502 L 1584 1528 Q 1607 1541 1628 1557 Q 1644 1570 1656 1589 L 1662 1601 L 1667 1621 L 1667 1640 L 1665 1650 Q 1660 1665 1651 1677 Q 1633 1698 1604 1708 L 1576 1716 L 1559 1718 L 1558 1719 L 1550 1719 L 1549 1720 L 1536 1720 L 1535 1721 L 1496 1721 L 1495 1720 L 1483 1720 L 1482 1719 L 1458 1717 L 1420 1709 L 1382 1697 Q 1316 1672 1269 1630 L 1268 1830 L 1282 1837 L 1309 1848 L 1337 1857 L 1369 1865 L 1408 1872 L 1429 1874 L 1430 1875 L 1460 1877 L 1461 1878 L 1474 1878 L 1475 1879 L 1496 1879 L 1497 1880 L 1550 1880 L 1551 1879 L 1570 1879 L 1571 1878 L 1595 1877 L 1596 1876 L 1612 1875 L 1613 1874 L 1644 1870 L 1677 1863 L 1718 1850 L 1755 1833 Q 1782 1819 1804 1799 Q 1837 1769 1858 1727 Q 1867 1706 1873 1683 L 1877 1662 L 1878 1646 L 1879 1645 L 1879 1633 L 1880 1632 L 1880 1595 L 1879 1594 L 1879 1582 L 1878 1581 L 1876 1560 L 1870 1534 Q 1855 1486 1826 1454 Q 1787 1410 1735 1381 L 1689 1357 L 1605 1321 L 1556 1297 Q 1529 1283 1508 1264 Q 1494 1252 1485 1237 L 1479 1222 L 1477 1212 L 1477 1193 L 1479 1183 Q 1484 1167 1493 1157 Q 1504 1144 1519 1135 L 1545 1123 L 1576 1115 L 1587 1114 L 1588 1113 L 1596 1113 L 1597 1112 L 1609 1112 L 1610 1111 L 1646 1111 L 1647 1112 L 1660 1112 L 1661 1113 L 1679 1114 L 1704 1119 L 1709 1119 L 1734 1125 Q 1765 1134 1793 1146 Q 1818 1157 1840 1173 L 1841 1173 L 1841 988 L 1833 983 L 1798 972 L 1764 964 L 1759 964 L 1741 960 L 1735 960 L 1734 959 L 1728 959 L 1727 958 L 1701 956 L 1700 955 L 1689 955 L 1688 954 L 1651 953 L 1650 952 L 1593 952 Z M 472 972 L 472 1136 L 727 1136 L 728 1138 L 728 1868 L 931 1868 L 931 1868 L 931 1136 L 1188 1136 L 1188 973 L 1188 972 L 472 972 Z " /><path fill="rgb(254,254,254)" stroke="rgb(254,254,254)" stroke-width="1" opacity="1" d="M 1592.5 952 L 1649.5 952 L 1650.5 953 L 1687.5 954 L 1688.5 955 L 1699.5 955 L 1700.5 956 L 1726.5 958 L 1727.5 959 L 1733.5 959 L 1734.5 960 L 1740.5 960 L 1758.5 964 L 1763.5 964 L 1797.5 972 L 1832.5 983 L 1841 987.5 L 1841 1172.5 L 1839.5 1173 Q 1818.2 1157.3 1792.5 1146 Q 1765 1133.5 1733.5 1125 L 1708.5 1119 L 1703.5 1119 L 1678.5 1114 L 1660.5 1113 L 1659.5 1112 L 1646.5 1112 L 1645.5 1111 L 1609.5 1111 L 1608.5 1112 L 1596.5 1112 L 1595.5 1113 L 1587.5 1113 L 1586.5 1114 L 1575.5 1115 L 1544.5 1123 L 1518.5 1135 Q 1503.8 1143.8 1493 1156.5 Q 1483.6 1167.1 1479 1182.5 L 1477 1192.5 L 1477 1211.5 L 1479 1221.5 L 1485 1236.5 Q 1494.2 1252.3 1507.5 1264 Q 1529.1 1282.9 1555.5 1297 L 1604.5 1321 L 1688.5 1357 L 1734.5 1381 Q 1787.2 1410.3 1826 1453.5 Q 1855.1 1486.4 1870 1533.5 L 1876 1559.5 L 1878 1580.5 L 1879 1581.5 L 1879 1593.5 L 1880 1594.5 L 1880 1631.5 L 1879 1632.5 L 1879 1644.5 L 1878 1645.5 L 1877 1661.5 L 1873 1682.5 Q 1867.4 1706.4 1858 1726.5 Q 1837.1 1769.1 1803.5 1799 Q 1781.6 1818.6 1754.5 1833 L 1717.5 1850 L 1676.5 1863 L 1643.5 1870 L 1612.5 1874 L 1611.5 1875 L 1595.5 1876 L 1594.5 1877 L 1570.5 1878 L 1569.5 1879 L 1550.5 1879 L 1549.5 1880 L 1496.5 1880 L 1495.5 1879 L 1474.5 1879 L 1473.5 1878 L 1460.5 1878 L 1459.5 1877 L 1429.5 1875 L 1428.5 1874 L 1407.5 1872 L 1368.5 1865 L 1336.5 1857 L 1308.5 1848 L 1281.5 1837 L 1268 1829.5 L 1268.5 1630 Q 1316.4 1672.1 1381.5 1697 L 1419.5 1709 L 1457.5 1717 L 1481.5 1719 L 1482.5 1720 L 1494.5 1720 L 1495.5 1721 L 1534.5 1721 L 1535.5 1720 L 1548.5 1720 L 1549.5 1719 L 1557.5 1719 L 1558.5 1718 L 1575.5 1716 L 1603.5 1708 Q 1632.8 1697.8 1651 1676.5 Q 1660.5 1665.5 1665 1649.5 L 1667 1639.5 L 1667 1620.5 L 1662 1600.5 L 1656 1588.5 Q 1644.1 1570.4 1627.5 1557 Q 1607.3 1540.7 1583.5 1528 L 1529.5 1502 L 1452.5 1470 L 1402.5 1444 Q 1358.7 1418.3 1325 1382.5 Q 1295.8 1351.7 1279 1308.5 L 1270 1278.5 L 1266 1255.5 L 1265 1235.5 L 1264 1234.5 L 1264 1200.5 L 1265 1199.5 L 1265 1187.5 L 1266 1186.5 L 1266 1179.5 L 1267 1178.5 L 1269 1160.5 L 1274 1140.5 L 1284 1113.5 Q 1305.5 1067.6 1341.5 1036 Q 1383.1 999.6 1440.5 979 L 1476.5 968 L 1514.5 960 L 1520.5 960 L 1542.5 956 L 1549.5 956 L 1550.5 955 L 1572.5 954 L 1573.5 953 L 1591.5 953 L 1592.5 952 Z " /><path fill="rgb(254,254,254)" stroke="rgb(254,254,254)" stroke-width="1" opacity="1" d="M 472 972 L 1187.5 972 L 1188 972.5 L 1188 1136 L 931 1136 L 931 1867.5 L 930.5 1868 L 728 1868 L 728 1137.5 L 726.5 1136 L 472 1136 L 472 972 Z " /></svg>